<svg xmlns="http://www.w3.org/2000/svg" width="143" height="59" fill="none" xmlns:v="https://vecta.io/nano"><path d="M0 29.5C0 13.208 13.208 0 29.5 0h108.01c1.867 0 2.716 2.331 1.286 3.531l-21.797 18.312c-4.757 3.996-4.757 11.317 0 15.313l21.797 18.312c1.43 1.201.581 3.531-1.286 3.531H29.5C13.208 59 0 45.792 0 29.5z" fill="#ff1640"/><path d="M18.875 19.8h7.6L31.45 37h-5.875l-.65-3.3h-4.45L19.75 37h-5.625l4.75-17.2zm5.45 10.825L22.7 23.1 21 30.625h3.325zM33.106 19.8h5.4v13.4h5.975V37H33.106V19.8zm13.452 0h6.2c2.567 0 4.55.5 5.95 1.5 1.417 1 2.125 2.4 2.125 4.2 0 1.133-.35 2.125-1.05 2.975-.683.85-1.625 1.508-2.825 1.975-1.183.45-2.5.675-3.95.675h-1.05V37h-5.4V19.8zm6.475 7.85c.883 0 1.567-.183 2.05-.55s.725-.9.725-1.6-.242-1.225-.725-1.575c-.467-.35-1.15-.525-2.05-.525h-1.075v4.2c.333.033.692.05 1.075.05zm9.76-7.85h5.775V37h-5.775V19.8zm9.033 0h5.025l6.85 9.275V19.8h4.475V37h-5l-6.9-8.95V37h-4.45V19.8zm19.605 0h12.075v3.8h-6v3.125h5.475v3.15h-5.475V33.2h6V37H91.431V19.8z" fill="#fff"/></svg>