<svg xmlns="http://www.w3.org/2000/svg" width="22" height="24" fill="none" xmlns:v="https://vecta.io/nano"><g clip-path="url(#A)"><path d="M11.005 6.61c-3.123 0-5.642 2.405-5.642 5.386s2.519 5.386 5.642 5.386 5.642-2.405 5.642-5.386-2.519-5.386-5.642-5.386zm0 8.887c-2.018 0-3.668-1.57-3.668-3.501s1.645-3.502 3.668-3.502 3.668 1.57 3.668 3.502-1.65 3.502-3.668 3.502zm7.189-9.108c0 .698-.589 1.256-1.316 1.256s-1.316-.562-1.316-1.256.589-1.256 1.316-1.256 1.316.563 1.316 1.256zm3.737 1.275c-.084-1.683-.486-3.173-1.778-4.402s-2.848-1.612-4.611-1.697c-1.817-.098-7.263-.098-9.08 0-1.758.08-3.32.464-4.611 1.692S.162 5.977.074 7.66c-.103 1.734-.103 6.933 0 8.667.083 1.683.486 3.173 1.778 4.402s2.848 1.613 4.611 1.697c1.817.098 7.263.098 9.08 0 1.763-.08 3.325-.464 4.611-1.697s1.689-2.719 1.778-4.402a121.23 121.23 0 0 0 0-8.662zm-2.347 10.523c-.383.919-1.125 1.627-2.092 1.997-1.449.549-4.886.422-6.487.422s-5.043.122-6.487-.422c-.963-.366-1.704-1.073-2.092-1.997-.575-1.383-.442-4.664-.442-6.192s-.128-4.814.442-6.192c.383-.919 1.125-1.627 2.092-1.997 1.449-.548 4.886-.422 6.487-.422s5.043-.122 6.487.422c.962.366 1.704 1.073 2.092 1.997.575 1.383.442 4.664.442 6.192s.133 4.814-.442 6.192z" fill="#fff"/></g><defs><clipPath id="A"><path fill="#fff" d="M0 0h22v24H0z"/></clipPath></defs></svg>