<svg width="60" height="60" viewBox="0 0 60 60" fill="none" xmlns="http://www.w3.org/2000/svg">
<g clip-path="url(#clip0)">
<path d="M57.266 53.0051C58.8 53.0051 60 51.7594 60 50.1691V9.83086C60 8.24062 58.7988 6.99609 57.2649 6.99609C56.7464 6.99982 56.2381 7.13964 55.7906 7.40156L25.3348 27.5695C24.8954 27.8052 24.5281 28.1557 24.2721 28.5836C24.016 29.0115 23.8808 29.5008 23.8808 29.9994C23.8808 30.498 24.016 30.9874 24.2721 31.4152C24.5281 31.8431 24.8954 32.1936 25.3348 32.4293L55.7918 52.5984C56.2392 52.8605 56.7476 53.0003 57.266 53.0039V53.0051Z" fill="white"/>
<path d="M33.3844 53.0051C34.9183 53.0051 36.1183 51.7594 36.1183 50.1691V9.83086C36.1183 8.24062 34.9172 6.99609 33.3832 6.99609C32.8647 6.99982 32.3564 7.13964 31.909 7.40156L1.45428 27.5695C1.01488 27.8052 0.64761 28.1557 0.391579 28.5836C0.135548 29.0115 0.000335693 29.5008 0.000335693 29.9994C0.000335693 30.498 0.135548 30.9874 0.391579 31.4152C0.64761 31.8431 1.01488 32.1936 1.45428 32.4293L31.9101 52.5996C32.3575 52.8616 32.8659 53.0015 33.3844 53.0051V53.0051Z" fill="white"/>
</g>
<defs>
<clipPath id="clip0">
<rect width="60" height="60" fill="white"/>
</clipPath>
</defs>
</svg>
