<svg width="51" height="52" viewBox="0 0 51 52" fill="none" xmlns="http://www.w3.org/2000/svg">
<g clip-path="url(#clip0)">
<path d="M11.6961 37.7376C11.6961 37.6929 13.508 38.6902 15.7423 39.9638L27.2491 46.5258C29.4834 47.8004 31.2953 46.7167 31.2953 44.1066V7.89444C31.2953 5.28124 29.4844 4.1996 27.2491 5.47421L15.7383 12.0362C13.503 13.3108 11.6921 14.3071 11.6921 14.2624C11.6921 14.2177 9.61629 14.1812 7.05533 14.1812H4.63682C2.07586 14.1822 0 15.7422 0 17.6719V34.3281C0 36.2578 2.07586 37.8209 4.63682 37.8209H7.06031C9.62027 37.8178 11.6961 37.7812 11.6961 37.7376Z" fill="#FFFDFD"/>
<path d="M48.6821 23.6366H37.0916C36.4768 23.6366 35.8872 23.8856 35.4525 24.3288C35.0179 24.7721 34.7737 25.3732 34.7737 26C34.7737 26.6268 35.0179 27.2279 35.4525 27.6711C35.8872 28.1144 36.4768 28.3633 37.0916 28.3633H48.6821C49.2969 28.3633 49.8864 28.1144 50.3211 27.6711C50.7558 27.2279 51 26.6268 51 26C51 25.3732 50.7558 24.7721 50.3211 24.3288C49.8864 23.8856 49.2969 23.6366 48.6821 23.6366Z" fill="white"/>
</g>
<defs>
<clipPath id="clip0">
<rect width="51" height="52" fill="white"/>
</clipPath>
</defs>
</svg>
