<svg width="55" height="52" viewBox="0 0 55 52" fill="none" xmlns="http://www.w3.org/2000/svg">
<path d="M12.25 37.1973C12.25 37.1546 14.1477 38.1052 16.4883 39.3219L28.5469 45.5823C30.8875 46.801 32.7863 45.7651 32.7863 43.2737V8.72624C32.7863 6.23593 30.8886 5.20202 28.5469 6.41773L16.4938 12.678C14.1531 13.8968 12.2555 14.8454 12.2555 14.8027C12.2555 14.7601 10.0778 14.7266 7.39594 14.7266H4.85734C2.17437 14.7266 0 16.2175 0 18.0568V33.9432C0 35.7825 2.17437 37.2734 4.85734 37.2734H7.39594C10.0778 37.2734 12.25 37.2399 12.25 37.1973Z" fill="#FAFAFA"/>
<path d="M48.7145 23.7453V19.2349C48.7145 18.6369 48.4587 18.0634 48.0034 17.6406C47.548 17.2178 46.9304 16.9802 46.2864 16.9802C45.6424 16.9802 45.0248 17.2178 44.5695 17.6406C44.1141 18.0634 43.8583 18.6369 43.8583 19.2349V23.7443H39.002C38.3581 23.7443 37.7405 23.9818 37.2851 24.4047C36.8297 24.8275 36.5739 25.401 36.5739 25.999C36.5739 26.597 36.8297 27.1704 37.2851 27.5933C37.7405 28.0161 38.3581 28.2537 39.002 28.2537H43.8594V32.7641C43.8594 33.362 44.1152 33.9355 44.5706 34.3584C45.0259 34.7812 45.6435 35.0187 46.2875 35.0187C46.9315 35.0187 47.5491 34.7812 48.0044 34.3584C48.4598 33.9355 48.7156 33.362 48.7156 32.7641V28.2547H53.5719C54.2159 28.2547 54.8335 28.0171 55.2888 27.5943C55.7442 27.1715 56 26.598 56 26C56 25.402 55.7442 24.8285 55.2888 24.4057C54.8335 23.9828 54.2159 23.7453 53.5719 23.7453H48.7145Z" fill="#FFFDFD"/>
</svg>
