<svg width="60" height="56" viewBox="0 0 60 56" fill="none" xmlns="http://www.w3.org/2000/svg">
<g id="&#226;&#128;&#156;">
<path id="&#226;&#128;&#156;_2" fill-rule="evenodd" clip-rule="evenodd" d="M23.7065 52.0327C21.1813 54.6776 17.8444 56 13.6958 56C9.45699 56 6.12008 54.525 3.68503 51.5749C1.24999 48.6249 0.0324707 44.4541 0.0324707 39.0627C0.0324707 35.4005 0.799058 31.2298 2.33223 26.5504C3.86541 21.871 5.91716 17.1916 8.48748 12.5123C11.0578 7.83288 14.0114 3.66213 17.3483 0H27.7649C26.2317 4.06903 25.0593 7.78202 24.2476 11.139C23.4359 14.4959 23.0301 17.5477 23.0301 20.2943C23.0301 23.4478 23.3908 26.1435 24.1123 28.3815C24.8338 30.6194 25.5779 32.8065 26.3445 34.9428C27.111 37.079 27.4943 39.6222 27.4943 42.5722C27.4943 46.2343 26.2317 49.3878 23.7065 52.0327ZM55.9119 52.0327C53.3867 54.6776 50.0498 56 45.9012 56C41.6624 56 38.3255 54.525 35.8904 51.5749C33.4554 48.6249 32.2379 44.4541 32.2379 39.0627C32.2379 35.4005 33.0045 31.2298 34.5376 26.5504C36.0708 21.871 38.1226 17.1916 40.6929 12.5123C43.2632 7.83288 46.2168 3.66213 49.5537 0H59.9703C58.4371 4.06903 57.2647 7.78202 56.453 11.139C55.6413 14.4959 55.2355 17.5477 55.2355 20.2943C55.2355 23.4478 55.5963 26.1435 56.3177 28.3815C57.0392 30.6194 57.7833 32.8065 58.5499 34.9428C59.3165 37.079 59.6998 39.6222 59.6998 42.5722C59.6998 46.2343 58.4371 49.3878 55.9119 52.0327Z" fill="#2C6269"/>
</g>
</svg>
