<svg width="100" height="100" viewBox="0 0 100 100" fill="none" xmlns="http://www.w3.org/2000/svg">
<path d="M50.0002 91.6666C73.0127 91.6666 91.6668 73.0124 91.6668 49.9999C91.6668 26.9874 73.0127 8.33325 50.0002 8.33325C26.9877 8.33325 8.3335 26.9874 8.3335 49.9999C8.3335 73.0124 26.9877 91.6666 50.0002 91.6666ZM42.3439 31.8687L68.0981 45.8833C71.3606 47.6583 71.3606 52.3416 68.0981 54.1166L42.3439 68.1312C39.221 69.8291 35.4168 67.5687 35.4168 64.0124V35.9874C35.4168 32.4312 39.221 30.1708 42.3439 31.8687Z" fill="black" fill-opacity="0.4"/>
<path d="M43.2477 31.9733C39.3803 29.9092 34.5938 32.5421 34.5938 36.7311V63.2811C34.5938 67.4702 39.3836 70.1046 43.2493 68.0389L68.0881 54.7577C72.0084 52.6639 72.0068 47.3358 68.0881 45.2421L43.246 31.9733H43.2477Z" fill="white"/>
</svg>
