<svg xmlns="http://www.w3.org/2000/svg" width="59" height="20" fill="none" xmlns:v="https://vecta.io/nano"><g clip-path="url(#A)"><g fill="#191919"><path d="M0 19.568V.216h6.703a6.89 6.89 0 0 1 2.448.432 6.24 6.24 0 0 1 2.013 1.215 5.69 5.69 0 0 1 1.394 1.948 5.7 5.7 0 0 1 .469 2.349 5.69 5.69 0 0 1-1.862 4.27 6.24 6.24 0 0 1-2.013 1.215 6.89 6.89 0 0 1-2.446.432h-3.65v7.486L0 19.568zM6.784 9.162a3.37 3.37 0 0 0 1.352-.254 2.96 2.96 0 0 0 1-.689 3.09 3.09 0 0 0 .621-.972 2.89 2.89 0 0 0 .216-1.081c-.002-.771-.302-1.512-.837-2.068-.306-.311-.672-.556-1.076-.721a3.21 3.21 0 0 0-1.273-.238H3.054v6.026l3.73-.003zm8.621-2.838v13.243h3V6.324h-3z"/></g><path d="M18.911 2.024a1.98 1.98 0 0 1-.581 1.433 1.91 1.91 0 0 1-1.42.594V0a1.91 1.91 0 0 1 .772.148c.244.102.465.254.647.446a1.98 1.98 0 0 1 .581 1.43z" fill="#35af39"/><path d="M16.908 0v4.054c-.268.006-.535-.043-.783-.146a1.94 1.94 0 0 1-.658-.449c-.189-.187-.338-.411-.438-.658a1.97 1.97 0 0 1-.145-.777c-.004-.265.046-.529.146-.774s.249-.469.437-.656c.186-.193.41-.346.659-.448s.515-.152.783-.146z" fill="#00bafc"/><g fill="#191919"><path d="M25 12.838l-4.568-6.513h3.487l2.864 4.189h.081l2.672-4.189h3.621l-4.622 6.513 4.702 6.73h-3.563l-2.865-4.324h-.081l-2.841 4.324h-3.538L25 12.838zm21.837 3.567a7.2 7.2 0 0 1-2.38 2.568c-1.026.686-2.287 1.028-3.782 1.028-.94.01-1.873-.169-2.743-.527a6.5 6.5 0 0 1-2.176-1.473c-.62-.641-1.107-1.399-1.432-2.229-.35-.9-.525-1.859-.513-2.825a7.59 7.59 0 0 1 .486-2.716 6.91 6.91 0 0 1 1.364-2.244 6.5 6.5 0 0 1 4.878-2.094c1.026 0 1.94.171 2.744.513a5.82 5.82 0 0 1 2.041 1.433c.576.643 1.013 1.397 1.284 2.216a8.68 8.68 0 0 1 .446 2.834v.243a1.22 1.22 0 0 0-.027.243.9.9 0 0 0-.027.216H36.81a4.19 4.19 0 0 0 .459 1.649 3.86 3.86 0 0 0 .932 1.162 3.63 3.63 0 0 0 1.23.675 4.3 4.3 0 0 0 1.324.216c.864 0 1.576-.207 2.135-.621a5.15 5.15 0 0 0 1.377-1.539l2.569 1.271zm-2.785-5.108c-.048-.311-.134-.615-.257-.905a2.77 2.77 0 0 0-.621-.917 3.59 3.59 0 0 0-1.081-.716c-.441-.198-.977-.297-1.607-.297-.864 0-1.607.257-2.23.77s-1.042 1.202-1.257 2.066h7.053zm5.271-4.973h2.834v2h.162a3.72 3.72 0 0 1 .666-.956 4.34 4.34 0 0 1 .947-.763 6.03 6.03 0 0 1 1.109-.513 3.43 3.43 0 0 1 1.121-.201c.373-.007.745.034 1.108.122a3.56 3.56 0 0 1 .838.337l-.865 2.73c-.212-.094-.434-.162-.662-.202a4.94 4.94 0 0 0-.878-.068c-.463-.005-.922.097-1.339.3-.406.199-.768.476-1.067.815-.314.358-.557.773-.716 1.222-.173.479-.26.985-.257 1.494v6.927h-2.996l-.005-13.243z"/></g></g><defs><clipPath id="A"><path fill="#fff" d="M0 0h58.107v20H0z"/></clipPath></defs></svg>