<svg width="52" height="48" viewBox="0 0 52 48" fill="none" xmlns="http://www.w3.org/2000/svg">
<path d="M27.4268 46.4204L51.4383 22.4089C52.206 21.614 52.184 20.3473 51.3891 19.5796C50.6136 18.8306 49.3843 18.8306 48.609 19.5796L26.0121 42.1764L3.41523 19.5795C2.63391 18.7984 1.36721 18.7984 0.585898 19.5795C-0.195299 20.361 -0.195299 21.6276 0.585897 22.4089L24.5974 46.4204C25.3789 47.2016 26.6455 47.2016 27.4268 46.4204Z" fill="white"/>
<path d="M27.4268 28.4204L51.4383 4.40888C52.206 3.61397 52.184 2.34726 51.3891 1.57955C50.6136 0.830598 49.3843 0.830598 48.609 1.57955L26.0121 24.1764L3.41523 1.57955C2.63391 0.798353 1.36721 0.798353 0.585898 1.57955C-0.195299 2.36098 -0.195299 3.62756 0.585897 4.40888L24.5974 28.4204C25.3789 29.2016 26.6455 29.2016 27.4268 28.4204Z" fill="white"/>
</svg>
