<svg width="11" height="11" viewBox="0 0 11 11" fill="none" xmlns="http://www.w3.org/2000/svg">
<path d="M5.5 8.06396C5.38134 8.06396 5.28516 8.16015 5.28516 8.27881C5.28516 8.27909 5.28516 8.27939 5.28516 8.27967C5.28516 8.27995 5.28516 8.28025 5.28516 8.28053V8.28225C5.28516 8.4009 5.38134 8.49709 5.5 8.49709C5.61866 8.49709 5.71484 8.4009 5.71484 8.28225C5.71484 8.28194 5.71484 8.28169 5.71484 8.28139C5.71484 8.28109 5.71484 8.28083 5.71484 8.28053C5.71484 8.28023 5.71484 8.27995 5.71484 8.27967C5.71484 8.27939 5.71484 8.27909 5.71484 8.27881C5.71484 8.16015 5.61866 8.06396 5.5 8.06396Z" fill="black"/>
<path d="M8.89453 0H2.10547C0.944496 0 0 0.944496 0 2.10547V8.89453C0 10.0555 0.944496 11 2.10547 11H5.5C5.61866 11 5.71484 10.9038 5.71484 10.7852V9.12012C5.71484 9.00146 5.61866 8.90527 5.5 8.90527C5.38134 8.90527 5.28516 9.00146 5.28516 9.12012V10.5703H2.10547C1.18145 10.5703 0.429688 9.81855 0.429688 8.89453V2.10547C0.429688 1.18145 1.18145 0.429688 2.10547 0.429688H8.89453C9.81855 0.429688 10.5703 1.18145 10.5703 2.10547V8.89453C10.5703 9.81855 9.81855 10.5703 8.89453 10.5703H7.51953V6.77834H8.76522C8.87556 6.77834 8.96794 6.69477 8.97899 6.585L9.13348 5.04984C9.13956 4.9894 9.11979 4.92925 9.07906 4.88421C9.03833 4.83918 8.98043 4.81349 8.91971 4.81349H7.51953V4.00737C7.51953 3.86147 7.566 3.80722 7.691 3.80722H8.91006C9.02872 3.80722 9.12491 3.71104 9.12491 3.59238V2.09578C9.12491 1.97712 9.02872 1.88094 8.91006 1.88094H7.30911C6.40198 1.88094 5.9209 2.27938 5.67707 2.61364C5.33605 3.0811 5.28513 3.63316 5.28513 3.92062V4.82311H4.2324C4.11374 4.82311 4.01756 4.9193 4.01756 5.03796V6.56348C4.01756 6.68213 4.11374 6.77832 4.2324 6.77832H5.28513V7.39062C5.28513 7.50928 5.38132 7.60547 5.49998 7.60547C5.61864 7.60547 5.71482 7.50928 5.71482 7.39062V6.56348C5.71482 6.44482 5.61864 6.34863 5.49998 6.34863H4.44724V5.25278H5.49998C5.61864 5.25278 5.71482 5.15659 5.71482 5.03794V3.9206C5.71482 3.43651 5.87018 2.3106 7.30911 2.3106H8.69522V3.37752H7.691C7.41368 3.37752 7.08984 3.54247 7.08984 4.00735V5.02831C7.08984 5.14697 7.18603 5.24315 7.30469 5.24315H8.68216L8.57091 6.34863H7.30469C7.18603 6.34863 7.08984 6.44482 7.08984 6.56348V10.7852C7.08984 10.9038 7.18603 11 7.30469 11H8.89453C10.0555 11 11 10.0555 11 8.89453V2.10547C11 0.944496 10.0555 0 8.89453 0Z" fill="black"/>
<path d="M1.24609 2.20215C1.12744 2.20215 1.03125 2.29833 1.03125 2.41699V4.21094C1.03125 4.3296 1.12744 4.42578 1.24609 4.42578C1.36475 4.42578 1.46094 4.3296 1.46094 4.21094V2.41699C1.46094 2.29833 1.36475 2.20215 1.24609 2.20215Z" fill="black"/>
<path d="M1.24609 4.92822C1.12744 4.92822 1.03125 5.02441 1.03125 5.14307V5.1456C1.03125 5.26426 1.12744 5.36044 1.24609 5.36044C1.36475 5.36044 1.46094 5.26426 1.46094 5.1456V5.14307C1.46094 5.02441 1.36475 4.92822 1.24609 4.92822Z" fill="black"/>
</svg>
