<svg width="11" height="11" viewBox="0 0 11 11" fill="none" xmlns="http://www.w3.org/2000/svg">
<path d="M7.77734 0H3.22266C1.44568 0 0 1.44568 0 3.22266V7.77734C0 9.55432 1.44568 11 3.22266 11H7.77734C9.55432 11 11 9.55432 11 7.77734V3.22266C11 1.44568 9.55432 0 7.77734 0ZM10.5703 7.77734C10.5703 9.31739 9.31739 10.5703 7.77734 10.5703H3.22266C1.68261 10.5703 0.429688 9.31739 0.429688 7.77734V3.22266C0.429688 1.68261 1.68261 0.429688 3.22266 0.429688H7.77734C9.31739 0.429688 10.5703 1.68261 10.5703 3.22266V7.77734Z" fill="#FFB800"/>
<path d="M7.77734 0.945312H3.22266C1.96692 0.945312 0.945312 1.96692 0.945312 3.22266V7.77734C0.945312 9.03308 1.96692 10.0547 3.22266 10.0547H4.5332C4.65186 10.0547 4.74805 9.9585 4.74805 9.83984C4.74805 9.72119 4.65186 9.625 4.5332 9.625H3.22266C2.20387 9.625 1.375 8.79613 1.375 7.77734V3.22266C1.375 2.20387 2.20387 1.375 3.22266 1.375H7.77734C8.79613 1.375 9.625 2.20387 9.625 3.22266V7.77734C9.625 8.79613 8.79613 9.625 7.77734 9.625H6.48113C6.36247 9.625 6.26628 9.72119 6.26628 9.83984C6.26628 9.9585 6.36247 10.0547 6.48113 10.0547H7.77734C9.03308 10.0547 10.0547 9.03308 10.0547 7.77734V3.22266C10.0547 1.96692 9.03308 0.945312 7.77734 0.945312Z" fill="#FFB800"/>
<path d="M5.65189 9.68795C5.61193 9.64799 5.5565 9.625 5.5 9.625C5.4435 9.625 5.38807 9.64799 5.34811 9.68795C5.30814 9.72791 5.28516 9.78334 5.28516 9.83984C5.28516 9.89635 5.30814 9.95178 5.34811 9.99174C5.38807 10.0317 5.4435 10.0547 5.5 10.0547C5.5565 10.0547 5.61193 10.0317 5.65189 9.99174C5.69186 9.95178 5.71484 9.89635 5.71484 9.83984C5.71484 9.78334 5.69186 9.72791 5.65189 9.68795Z" fill="#FFB800"/>
<path d="M3.77782 3.34529C3.69667 3.25871 3.56074 3.25428 3.47414 3.33539L3.46462 3.34435C3.37832 3.42577 3.37436 3.56175 3.45581 3.64805C3.49807 3.69285 3.55503 3.71545 3.61211 3.71545C3.665 3.71545 3.71801 3.69603 3.75951 3.65686L3.76791 3.64898C3.8545 3.56785 3.85894 3.43188 3.77782 3.34529Z" fill="#FFB800"/>
<path d="M5.5 2.53516C5.02812 2.53516 4.55847 2.64883 4.14182 2.86389C4.0364 2.91831 3.99504 3.0479 4.04946 3.15335C4.1039 3.25877 4.2335 3.30011 4.33892 3.24571C4.69996 3.05933 5.09062 2.96484 5.5 2.96484C6.89788 2.96484 8.03516 4.10212 8.03516 5.5C8.03516 6.89788 6.89788 8.03516 5.5 8.03516C4.10212 8.03516 2.96484 6.89788 2.96484 5.5C2.96484 5.06131 3.0786 4.62909 3.29383 4.25008C3.35242 4.14691 3.31629 4.01577 3.2131 3.95716C3.10991 3.8986 2.97879 3.93471 2.92018 4.0379C2.6683 4.48147 2.53516 4.98706 2.53516 5.5C2.53516 7.13481 3.86519 8.46484 5.5 8.46484C7.13481 8.46484 8.46484 7.13481 8.46484 5.5C8.46484 3.86519 7.13481 2.53516 5.5 2.53516Z" fill="#FFB800"/>
<path d="M5.5 3.56641C4.43382 3.56641 3.56641 4.43382 3.56641 5.5C3.56641 6.56618 4.43382 7.43359 5.5 7.43359C6.56618 7.43359 7.43359 6.56618 7.43359 5.5C7.43359 4.43382 6.56618 3.56641 5.5 3.56641ZM5.5 7.00391C4.67075 7.00391 3.99609 6.32925 3.99609 5.5C3.99609 4.67075 4.67075 3.99609 5.5 3.99609C6.32925 3.99609 7.00391 4.67075 7.00391 5.5C7.00391 6.32925 6.32925 7.00391 5.5 7.00391Z" fill="#FFB800"/>
<path d="M8.31982 1.86377C7.86966 1.86377 7.50342 2.23001 7.50342 2.68018C7.50342 3.13034 7.86966 3.49658 8.31982 3.49658C8.76999 3.49658 9.13623 3.13034 9.13623 2.68018C9.13623 2.23001 8.76999 1.86377 8.31982 1.86377ZM8.31982 3.06689C8.10659 3.06689 7.93311 2.89341 7.93311 2.68018C7.93311 2.46694 8.10659 2.29346 8.31982 2.29346C8.53306 2.29346 8.70654 2.46694 8.70654 2.68018C8.70654 2.89341 8.53306 3.06689 8.31982 3.06689Z" fill="#FFB800"/>
</svg>
