<svg width="12" height="10" viewBox="0 0 12 10" fill="none" xmlns="http://www.w3.org/2000/svg">
<path d="M10.5938 0.125H1.40625C0.630844 0.125 0 0.755844 0 1.53125V2.69129L5.16073 6.52991C5.41172 6.71659 5.70586 6.80994 6 6.80994C6.29414 6.80994 6.58828 6.71661 6.83927 6.52991L12 2.69129V1.53125C12 0.755844 11.3692 0.125 10.5938 0.125ZM11.0625 2.22022L6.27977 5.77766C6.11243 5.90213 5.88757 5.90213 5.72025 5.77766L0.9375 2.22022V1.53125C0.9375 1.27278 1.14778 1.0625 1.40625 1.0625H10.5938C10.8522 1.0625 11.0625 1.27278 11.0625 1.53125V2.22022ZM11.0625 4.55701L12 3.8597V8.46875C12 9.24416 11.3692 9.875 10.5938 9.875H1.40625C0.630844 9.875 0 9.24416 0 8.46875V3.8597L0.9375 4.55701V8.46875C0.9375 8.72722 1.14778 8.9375 1.40625 8.9375H10.5938C10.8522 8.9375 11.0625 8.72722 11.0625 8.46875V4.55701Z" fill="black"/>
</svg>
