<svg width="40" height="40" viewBox="0 0 40 40" fill="none" xmlns="http://www.w3.org/2000/svg">
<path d="M38.1976 29.1373L32.2662 24.0936C32.2387 24.0704 32.2097 24.0491 32.1795 24.0299C30.6234 23.0393 28.6254 23.2587 27.3208 24.563L24.0869 27.7966C23.8629 28.0209 23.5287 28.0872 23.2357 27.9663C19.584 26.4557 16.5841 24.1815 14.3194 21.2076C12.5924 18.9398 11.9699 17.1378 11.8878 16.8839C11.878 16.8295 11.8624 16.7755 11.8405 16.7227C11.7193 16.4298 11.7855 16.0962 12.0101 15.8722L15.2438 12.6376C16.5484 11.333 16.7675 9.33503 15.7769 7.77894C15.769 7.76643 15.7608 7.75422 15.7522 7.74201L11.4688 1.78956C10.1211 -0.301198 7.18562 -0.617055 5.42384 1.14442L4.77626 1.792C4.77595 1.79261 4.77534 1.79322 4.77473 1.79353L2.46272 4.10554C-0.294236 6.8628 -0.745286 11.0059 1.15871 16.0877C2.78957 20.4407 6.05434 25.2048 10.3515 29.502C14.7503 33.9008 19.6432 37.226 24.1287 38.8651C28.5684 40.4871 33.291 40.687 36.6336 37.3441L38.814 35.1639C40.5679 33.4097 40.2618 30.4935 38.1976 29.1373ZM31.2982 25.321L37.2244 30.3604C37.2515 30.3836 37.2805 30.405 37.3107 30.4242C38.5766 31.2302 38.7683 33.0002 37.709 34.0591L37.5473 34.2212L27.4395 26.6534L28.4256 25.6677C29.1961 24.8969 30.3704 24.7574 31.2982 25.321ZM10.1635 2.64802C10.1715 2.66053 10.1797 2.67304 10.1882 2.68495L14.4699 8.63526C15.0515 9.56635 14.9169 10.755 14.1391 11.5329L13.1835 12.4887L6.34517 2.43257L6.52858 2.24916C7.59212 1.18562 9.36061 1.38673 10.1635 2.64802ZM24.6646 37.3975C20.3884 35.835 15.6976 32.6386 11.4563 28.3972C7.31319 24.2545 4.17567 19.6881 2.62141 15.5396C1.45473 12.4255 0.67195 8.10578 3.56746 5.21058L5.2206 3.55714L12.059 13.6133L10.9057 14.7672C10.2496 15.4221 10.0433 16.3913 10.3707 17.2543C10.6173 18.2663 11.752 20.3668 12.8967 21.9147C14.5813 24.1925 17.6388 27.3416 22.6385 29.4101C23.5171 29.7736 24.519 29.574 25.1916 28.9017L26.3235 27.7695L36.4312 35.3372L35.5288 36.2393C32.4249 39.3436 27.9077 38.5825 24.6646 37.3975Z" fill="#FFB800"/>
</svg>
