<svg width="14" height="14" viewBox="0 0 14 14" fill="none" xmlns="http://www.w3.org/2000/svg">
<path d="M13.3698 10.198L11.2938 8.43277C11.2842 8.42465 11.274 8.41718 11.2634 8.41045C10.7188 8.06374 10.0195 8.14054 9.5629 8.59705L8.43102 9.72882C8.35262 9.80733 8.23566 9.83051 8.13312 9.78821C6.85502 9.25949 5.80506 8.46353 5.01241 7.42266C4.40796 6.62894 4.19007 5.99822 4.16134 5.90935C4.15792 5.89034 4.15247 5.87143 4.14478 5.85295C4.10238 5.75041 4.12555 5.63367 4.20417 5.55527L5.33594 4.42317C5.79256 3.96656 5.86925 3.26726 5.52254 2.72263C5.51977 2.71825 5.51688 2.71398 5.51389 2.7097L4.01468 0.626346C3.543 -0.105419 2.51558 -0.215969 1.89896 0.400547L1.67231 0.627201C1.6722 0.627414 1.67199 0.627628 1.67177 0.627735L0.862569 1.43694C-0.102366 2.40198 -0.260234 3.85205 0.406163 5.63068C0.976964 7.15424 2.11963 8.82167 3.62365 10.3257C5.16323 11.8653 6.87574 13.0291 8.44565 13.6028C9.99955 14.1705 11.6525 14.2404 12.8224 13.0704L13.5855 12.3074C14.1994 11.6934 14.0922 10.6727 13.3698 10.198ZM10.955 8.86237L13.0292 10.6261C13.0387 10.6343 13.0488 10.6417 13.0594 10.6485C13.5024 10.9306 13.5695 11.5501 13.1988 11.9207L13.1422 11.9774L9.60445 9.32871L9.94956 8.98371C10.2193 8.7139 10.6303 8.66509 10.955 8.86237ZM3.55785 0.926807C3.56063 0.931186 3.56351 0.935565 3.5665 0.939731L5.06507 3.02234C5.26865 3.34822 5.22155 3.76425 4.94929 4.03652L4.61486 4.37105L2.22143 0.851398L2.28562 0.787204C2.65786 0.414966 3.27683 0.485355 3.55785 0.926807ZM8.63321 13.0891C7.13657 12.5422 5.49477 11.4235 4.0103 9.93903C2.56023 8.48906 1.4621 6.89084 0.918111 5.43885C0.50977 4.34894 0.235799 2.83702 1.24923 1.8237L1.82782 1.245L4.22126 4.76465L3.81762 5.16851C3.58797 5.39772 3.51577 5.73696 3.63038 6.03902C3.71668 6.39321 4.11381 7.12839 4.51446 7.67014C5.10405 8.46738 6.1742 9.56957 7.92409 10.2935C8.2316 10.4207 8.58227 10.3509 8.81768 10.1156L9.21384 9.71932L12.7515 12.368L12.4357 12.6838C11.3493 13.7702 9.7683 13.5039 8.63321 13.0891Z" fill="black"/>
</svg>
