<svg width="12" height="12" viewBox="0 0 12 12" fill="none" xmlns="http://www.w3.org/2000/svg">
<g clip-path="url(#clip0)">
<path d="M9.02973 2.85719L4.09452 5.8968C3.81523 6.0692 3.68307 6.40973 3.77305 6.72468L4.30667 8.59968C4.35226 8.75955 4.49452 8.86581 4.65821 8.86581C4.66733 8.86581 4.67654 8.86548 4.68577 8.8648C4.86076 8.8521 4.99923 8.72177 5.0225 8.54805L5.16125 7.51994C5.17995 7.38161 5.24661 7.25294 5.34878 7.15783L9.4214 3.37211C9.54447 3.25799 9.56073 3.07113 9.45932 2.93746C9.35774 2.80368 9.17317 2.76909 9.02973 2.85719ZM5.02313 6.80779C4.84013 6.97813 4.72091 7.20831 4.68744 7.45595L4.62015 7.95466L4.2328 6.59359C4.20132 6.48334 4.24768 6.36412 4.34541 6.30379L7.96084 4.07706L5.02313 6.80779Z" fill="black"/>
<path d="M11.8048 0.876069C11.6506 0.745381 11.4378 0.709405 11.2493 0.782202L0.353444 4.98553C0.137655 5.06876 -0.00109505 5.27194 6.51131e-06 5.50315C0.00113151 5.73457 0.141921 5.93662 0.358975 6.01795L2.90405 6.96785L3.89684 10.1606C3.95136 10.3361 4.08896 10.4725 4.26488 10.5255C4.44071 10.5783 4.6306 10.5405 4.77254 10.4244L6.25238 9.21804C6.32344 9.1601 6.42493 9.15724 6.49913 9.21112L9.16826 11.149C9.26429 11.2188 9.37761 11.2547 9.49224 11.2547C9.55939 11.2547 9.62698 11.2424 9.69186 11.2173C9.86731 11.1494 9.99491 10.999 10.0331 10.815L11.9885 1.40934C12.0295 1.2113 11.9592 1.00697 11.8048 0.876069ZM11.5204 1.31219L9.56504 10.7178C9.55796 10.7518 9.53349 10.766 9.51952 10.7714C9.50546 10.7768 9.47769 10.7828 9.44928 10.7622L6.78005 8.82424C6.66073 8.73761 6.52044 8.69461 6.3804 8.69461C6.22763 8.69461 6.07508 8.74582 5.95039 8.8474L4.47022 10.0541C4.44387 10.0756 4.41652 10.0718 4.4026 10.0676C4.38858 10.0634 4.36358 10.0514 4.3534 10.0187L3.32579 6.71388C3.30383 6.64326 3.25039 6.58678 3.18111 6.5609L0.52646 5.57013C0.48671 5.55525 0.478249 5.52424 0.478132 5.50083C0.478014 5.47762 0.486171 5.44676 0.525546 5.43157L11.4215 1.22826C11.4215 1.22824 11.4216 1.22822 11.4217 1.22819C11.4571 1.21453 11.4832 1.23023 11.4957 1.24078C11.5082 1.25144 11.5281 1.27488 11.5204 1.31219Z" fill="black"/>
<path d="M10.0191 5.90979C9.89008 5.88176 9.76282 5.96368 9.73481 6.0927L9.69848 6.26004C9.67048 6.38907 9.75237 6.51635 9.88139 6.54436C9.89848 6.54806 9.91552 6.54985 9.93234 6.54985C10.0424 6.54985 10.1414 6.47339 10.1657 6.36148L10.2021 6.19414C10.23 6.06511 10.1481 5.93783 10.0191 5.90979Z" fill="black"/>
<path d="M9.78002 7.01086C9.65083 6.98285 9.52366 7.06474 9.49568 7.19377L8.94586 9.72621C8.91785 9.85524 8.99974 9.98253 9.12874 10.0105C9.14585 10.0142 9.16289 10.016 9.17969 10.016C9.28976 10.016 9.38876 9.93956 9.41308 9.82765L9.9629 7.29518C9.99091 7.16616 9.90902 7.03887 9.78002 7.01086Z" fill="black"/>
</g>
<defs>
<clipPath id="clip0">
<rect width="12" height="12" fill="white"/>
</clipPath>
</defs>
</svg>
