<svg xmlns="http://www.w3.org/2000/svg" xmlns:xlink="http://www.w3.org/1999/xlink" width="132" height="115" fill="none" xmlns:v="https://vecta.io/nano"><g opacity=".3"><mask id="A" mask-type="alpha" maskUnits="userSpaceOnUse" x="0" y="0" width="11" height="11"><path d="M5.228 10.425c2.888 0 5.228-2.334 5.228-5.213S8.116 0 5.228 0 0 2.334 0 5.212s2.341 5.213 5.228 5.213z" fill="url(#Z)"/></mask><g mask="url(#A)"><path d="M5.228 10.425c2.888 0 5.228-2.334 5.228-5.213S8.116 0 5.228 0 0 2.334 0 5.212s2.341 5.213 5.228 5.213z" fill="url(#a)"/></g><mask id="B" mask-type="alpha" maskUnits="userSpaceOnUse" x="30" y="0" width="11" height="11"><path d="M35.51 10.425c2.887 0 5.228-2.334 5.228-5.213S38.397 0 35.51 0s-5.228 2.334-5.228 5.212 2.341 5.213 5.228 5.213z" fill="url(#b)"/></mask><g mask="url(#B)"><path d="M35.51 10.425c2.887 0 5.228-2.334 5.228-5.213S38.397 0 35.51 0s-5.228 2.334-5.228 5.212 2.341 5.213 5.228 5.213z" fill="url(#c)"/></g><mask id="C" mask-type="alpha" maskUnits="userSpaceOnUse" x="60" y="0" width="12" height="11"><path d="M65.791 10.425c2.888 0 5.228-2.334 5.228-5.213S68.678 0 65.791 0s-5.228 2.334-5.228 5.212 2.341 5.213 5.228 5.213z" fill="url(#d)"/></mask><g mask="url(#C)"><path d="M65.791 10.425c2.888 0 5.228-2.334 5.228-5.213S68.678 0 65.791 0s-5.228 2.334-5.228 5.212 2.341 5.213 5.228 5.213z" fill="url(#e)"/></g><mask id="D" mask-type="alpha" maskUnits="userSpaceOnUse" x="90" y="0" width="12" height="11"><path d="M96.072 10.425c2.888 0 5.228-2.334 5.228-5.213S98.959 0 96.072 0s-5.228 2.334-5.228 5.212 2.341 5.213 5.228 5.213z" fill="url(#f)"/></mask><g mask="url(#D)"><path d="M96.072 10.425c2.888 0 5.228-2.334 5.228-5.213S98.959 0 96.072 0s-5.228 2.334-5.228 5.212 2.341 5.213 5.228 5.213z" fill="url(#g)"/></g><mask id="E" mask-type="alpha" maskUnits="userSpaceOnUse" x="121" y="0" width="11" height="11"><path d="M126.353 10.425c2.887 0 5.228-2.334 5.228-5.213S129.24 0 126.353 0s-5.229 2.334-5.229 5.212 2.341 5.213 5.229 5.213z" fill="url(#h)"/></mask><g mask="url(#E)"><path d="M126.353 10.425c2.887 0 5.228-2.334 5.228-5.213S129.24 0 126.353 0s-5.229 2.334-5.229 5.212 2.341 5.213 5.229 5.213z" fill="url(#i)"/></g><mask id="F" mask-type="alpha" maskUnits="userSpaceOnUse" x="0" y="26" width="11" height="11"><path d="M5.228 36.596c2.888 0 5.228-2.334 5.228-5.212s-2.341-5.212-5.228-5.212S0 28.505 0 31.383s2.341 5.212 5.228 5.212z" fill="url(#j)"/></mask><g mask="url(#F)"><path d="M5.228 36.596c2.888 0 5.228-2.334 5.228-5.212s-2.341-5.212-5.228-5.212S0 28.505 0 31.383s2.341 5.212 5.228 5.212z" fill="url(#k)"/></g><mask id="G" mask-type="alpha" maskUnits="userSpaceOnUse" x="30" y="26" width="11" height="11"><path d="M35.51 36.596c2.887 0 5.228-2.334 5.228-5.212s-2.341-5.212-5.228-5.212-5.228 2.334-5.228 5.212 2.341 5.212 5.228 5.212z" fill="url(#l)"/></mask><g mask="url(#G)"><use xlink:href="#AX" fill="url(#m)"/></g><mask id="H" mask-type="alpha" maskUnits="userSpaceOnUse" x="60" y="26" width="12" height="11"><path d="M65.791 36.596c2.888 0 5.228-2.334 5.228-5.212s-2.341-5.212-5.228-5.212-5.228 2.334-5.228 5.212 2.341 5.212 5.228 5.212z" fill="url(#n)"/></mask><g mask="url(#H)"><use xlink:href="#AY" fill="url(#o)"/></g><mask id="I" mask-type="alpha" maskUnits="userSpaceOnUse" x="90" y="26" width="12" height="11"><path d="M96.072 36.596c2.888 0 5.228-2.334 5.228-5.212s-2.341-5.212-5.228-5.212-5.228 2.334-5.228 5.212 2.341 5.212 5.228 5.212z" fill="url(#p)"/></mask><g mask="url(#I)"><use xlink:href="#AY" x="30.281" fill="url(#q)"/></g><mask id="J" mask-type="alpha" maskUnits="userSpaceOnUse" x="121" y="26" width="11" height="11"><path d="M126.353 36.596c2.887 0 5.228-2.334 5.228-5.212s-2.341-5.212-5.228-5.212-5.229 2.334-5.229 5.212 2.341 5.212 5.229 5.212z" fill="url(#r)"/></mask><g mask="url(#J)"><use xlink:href="#AZ" fill="url(#s)"/></g><mask id="K" mask-type="alpha" maskUnits="userSpaceOnUse" x="0" y="52" width="11" height="11"><path d="M5.228 62.713c2.888 0 5.228-2.334 5.228-5.212s-2.341-5.212-5.228-5.212S0 54.621 0 57.5s2.341 5.212 5.228 5.212z" fill="url(#t)"/></mask><g mask="url(#K)"><path d="M5.228 62.713c2.888 0 5.228-2.334 5.228-5.212s-2.341-5.212-5.228-5.212S0 54.621 0 57.5s2.341 5.212 5.228 5.212z" fill="url(#u)"/></g><mask id="L" mask-type="alpha" maskUnits="userSpaceOnUse" x="30" y="52" width="11" height="11"><path d="M35.51 62.713c2.887 0 5.228-2.334 5.228-5.212s-2.341-5.212-5.228-5.212-5.228 2.334-5.228 5.212 2.341 5.212 5.228 5.212z" fill="url(#v)"/></mask><g mask="url(#L)"><use xlink:href="#AX" y="26.117" fill="url(#w)"/></g><mask id="M" mask-type="alpha" maskUnits="userSpaceOnUse" x="60" y="52" width="12" height="11"><path d="M65.791 62.713c2.888 0 5.228-2.334 5.228-5.212s-2.341-5.212-5.228-5.212-5.228 2.334-5.228 5.212 2.341 5.212 5.228 5.212z" fill="url(#x)"/></mask><g mask="url(#M)"><use xlink:href="#AY" y="26.117" fill="url(#y)"/></g><mask id="N" mask-type="alpha" maskUnits="userSpaceOnUse" x="90" y="52" width="12" height="11"><path d="M96.072 62.713c2.888 0 5.228-2.334 5.228-5.212s-2.341-5.212-5.228-5.212-5.228 2.334-5.228 5.212 2.341 5.212 5.228 5.212z" fill="url(#z)"/></mask><g mask="url(#N)"><use xlink:href="#AY" x="30.281" y="26.117" fill="url(#AA)"/></g><mask id="O" mask-type="alpha" maskUnits="userSpaceOnUse" x="121" y="52" width="11" height="11"><path d="M126.353 62.713c2.887 0 5.228-2.334 5.228-5.212s-2.341-5.212-5.228-5.212-5.229 2.334-5.229 5.212 2.341 5.212 5.229 5.212z" fill="url(#AB)"/></mask><g mask="url(#O)"><use xlink:href="#AZ" y="26.117" fill="url(#AC)"/></g><mask id="P" mask-type="alpha" maskUnits="userSpaceOnUse" x="0" y="78" width="11" height="11"><path d="M5.228 88.883c2.888 0 5.228-2.334 5.228-5.212s-2.341-5.213-5.228-5.213S0 80.792 0 83.671s2.341 5.212 5.228 5.212z" fill="url(#AD)"/></mask><g mask="url(#P)"><path d="M5.228 88.883c2.888 0 5.228-2.334 5.228-5.212s-2.341-5.213-5.228-5.213S0 80.792 0 83.671s2.341 5.212 5.228 5.212z" fill="url(#AE)"/></g><mask id="Q" mask-type="alpha" maskUnits="userSpaceOnUse" x="30" y="78" width="11" height="11"><path d="M35.51 88.883c2.887 0 5.228-2.334 5.228-5.212s-2.341-5.213-5.228-5.213-5.228 2.334-5.228 5.213 2.341 5.212 5.228 5.212z" fill="url(#AF)"/></mask><g mask="url(#Q)"><path d="M35.51 88.883c2.887 0 5.228-2.334 5.228-5.212s-2.341-5.213-5.228-5.213-5.228 2.334-5.228 5.213 2.341 5.212 5.228 5.212z" fill="url(#AG)"/></g><mask id="R" mask-type="alpha" maskUnits="userSpaceOnUse" x="60" y="78" width="12" height="11"><path d="M65.791 88.883c2.888 0 5.228-2.334 5.228-5.212s-2.341-5.213-5.228-5.213-5.228 2.334-5.228 5.213 2.341 5.212 5.228 5.212z" fill="url(#AH)"/></mask><g mask="url(#R)"><use xlink:href="#Aa" fill="url(#AI)"/></g><mask id="S" mask-type="alpha" maskUnits="userSpaceOnUse" x="90" y="78" width="12" height="11"><path d="M96.072 88.883c2.888 0 5.228-2.334 5.228-5.212s-2.341-5.213-5.228-5.213-5.228 2.334-5.228 5.213 2.341 5.212 5.228 5.212z" fill="url(#AJ)"/></mask><g mask="url(#S)"><use xlink:href="#Aa" x="30.281" fill="url(#AK)"/></g><mask id="T" mask-type="alpha" maskUnits="userSpaceOnUse" x="121" y="78" width="11" height="11"><path d="M126.353 88.883c2.887 0 5.228-2.334 5.228-5.212s-2.341-5.213-5.228-5.213-5.229 2.334-5.229 5.213 2.341 5.212 5.229 5.212z" fill="url(#AL)"/></mask><g mask="url(#T)"><use xlink:href="#Ab" fill="url(#AM)"/></g><mask id="U" mask-type="alpha" maskUnits="userSpaceOnUse" x="0" y="104" width="11" height="11"><path d="M5.228 115c2.888 0 5.228-2.334 5.228-5.212s-2.341-5.213-5.228-5.213S0 106.909 0 109.788 2.341 115 5.228 115z" fill="url(#AN)"/></mask><g mask="url(#U)"><path d="M5.228 115c2.888 0 5.228-2.334 5.228-5.212s-2.341-5.213-5.228-5.213S0 106.909 0 109.788 2.341 115 5.228 115z" fill="url(#AO)"/></g><mask id="V" mask-type="alpha" maskUnits="userSpaceOnUse" x="30" y="104" width="11" height="11"><path d="M35.51 115c2.887 0 5.228-2.334 5.228-5.212s-2.341-5.213-5.228-5.213-5.228 2.334-5.228 5.213S32.622 115 35.51 115z" fill="url(#AP)"/></mask><g mask="url(#V)"><path d="M35.51 115c2.887 0 5.228-2.334 5.228-5.212s-2.341-5.213-5.228-5.213-5.228 2.334-5.228 5.213S32.622 115 35.51 115z" fill="url(#AQ)"/></g><mask id="W" mask-type="alpha" maskUnits="userSpaceOnUse" x="60" y="104" width="12" height="11"><path d="M65.791 115c2.888 0 5.228-2.334 5.228-5.212s-2.341-5.213-5.228-5.213-5.228 2.334-5.228 5.213S62.903 115 65.791 115z" fill="url(#AR)"/></mask><g mask="url(#W)"><path d="M65.791 115c2.888 0 5.228-2.334 5.228-5.212s-2.341-5.213-5.228-5.213-5.228 2.334-5.228 5.213S62.903 115 65.791 115z" fill="url(#AS)"/></g><mask id="X" mask-type="alpha" maskUnits="userSpaceOnUse" x="90" y="104" width="12" height="11"><path d="M96.072 115c2.888 0 5.228-2.334 5.228-5.212s-2.341-5.213-5.228-5.213-5.228 2.334-5.228 5.213S93.184 115 96.072 115z" fill="url(#AT)"/></mask><g mask="url(#X)"><path d="M96.072 115c2.888 0 5.228-2.334 5.228-5.212s-2.341-5.213-5.228-5.213-5.228 2.334-5.228 5.213S93.184 115 96.072 115z" fill="url(#AU)"/></g><mask id="Y" mask-type="alpha" maskUnits="userSpaceOnUse" x="121" y="104" width="11" height="11"><path d="M126.353 115c2.887 0 5.228-2.334 5.228-5.212s-2.341-5.213-5.228-5.213-5.229 2.334-5.229 5.213 2.341 5.212 5.229 5.212z" fill="url(#AV)"/></mask><g mask="url(#Y)"><use xlink:href="#Ab" y="26.117" fill="url(#AW)"/></g></g><defs><linearGradient id="Z" x1="54.996" y1="131.134" x2="-16.406" y2="-50.67" xlink:href="#Ac"><stop/><stop offset="1" stop-color="#fff"/></linearGradient><linearGradient id="a" x1="54.996" y1="131.134" x2="-16.406" y2="-50.67" xlink:href="#Ac"><stop stop-color="#97c3f9"/><stop offset="1" stop-color="#93c1f9"/></linearGradient><linearGradient id="b" x1="81.201" y1="120.843" x2="9.799" y2="-60.961" xlink:href="#Ac"><stop/><stop offset="1" stop-color="#fff"/></linearGradient><linearGradient id="c" x1="81.201" y1="120.843" x2="9.799" y2="-60.961" xlink:href="#Ac"><stop stop-color="#97c3f9"/><stop offset="1" stop-color="#93c1f9"/></linearGradient><linearGradient id="d" x1="107.405" y1="110.551" x2="36.003" y2="-71.253" xlink:href="#Ac"><stop/><stop offset="1" stop-color="#fff"/></linearGradient><linearGradient id="e" x1="107.405" y1="110.551" x2="36.003" y2="-71.253" xlink:href="#Ac"><stop stop-color="#97c3f9"/><stop offset="1" stop-color="#93c1f9"/></linearGradient><linearGradient id="f" x1="133.609" y1="100.259" x2="62.208" y2="-81.544" xlink:href="#Ac"><stop/><stop offset="1" stop-color="#fff"/></linearGradient><linearGradient id="g" x1="133.609" y1="100.259" x2="62.208" y2="-81.544" xlink:href="#Ac"><stop stop-color="#97c3f9"/><stop offset="1" stop-color="#93c1f9"/></linearGradient><linearGradient id="h" x1="159.813" y1="89.968" x2="88.412" y2="-91.836" xlink:href="#Ac"><stop/><stop offset="1" stop-color="#fff"/></linearGradient><linearGradient id="i" x1="159.813" y1="89.968" x2="88.412" y2="-91.836" xlink:href="#Ac"><stop stop-color="#97c3f9"/><stop offset="1" stop-color="#93c1f9"/></linearGradient><linearGradient id="j" x1="46.054" y1="134.645" x2="-25.347" y2="-47.157" xlink:href="#Ac"><stop/><stop offset="1" stop-color="#fff"/></linearGradient><linearGradient id="k" x1="46.054" y1="134.645" x2="-25.347" y2="-47.157" xlink:href="#Ac"><stop stop-color="#97c3f9"/><stop offset="1" stop-color="#93c1f9"/></linearGradient><linearGradient id="l" x1="72.258" y1="124.354" x2=".858" y2="-57.449" xlink:href="#Ac"><stop/><stop offset="1" stop-color="#fff"/></linearGradient><linearGradient id="m" x1="72.258" y1="124.354" x2=".858" y2="-57.449" xlink:href="#Ac"><stop stop-color="#97c3f9"/><stop offset="1" stop-color="#93c1f9"/></linearGradient><linearGradient id="n" x1="98.462" y1="114.062" x2="27.062" y2="-67.74" xlink:href="#Ac"><stop/><stop offset="1" stop-color="#fff"/></linearGradient><linearGradient id="o" x1="98.462" y1="114.062" x2="27.062" y2="-67.74" xlink:href="#Ac"><stop stop-color="#97c3f9"/><stop offset="1" stop-color="#93c1f9"/></linearGradient><linearGradient id="p" x1="124.667" y1="103.771" x2="53.266" y2="-78.032" xlink:href="#Ac"><stop/><stop offset="1" stop-color="#fff"/></linearGradient><linearGradient id="q" x1="94.386" y1="103.771" x2="22.985" y2="-78.032" xlink:href="#Ac"><stop stop-color="#97c3f9"/><stop offset="1" stop-color="#93c1f9"/></linearGradient><linearGradient id="r" x1="150.871" y1="93.479" x2="79.471" y2="-88.323" xlink:href="#Ac"><stop/><stop offset="1" stop-color="#fff"/></linearGradient><linearGradient id="s" x1="150.871" y1="93.479" x2="79.471" y2="-88.323" xlink:href="#Ac"><stop stop-color="#97c3f9"/><stop offset="1" stop-color="#93c1f9"/></linearGradient><linearGradient id="t" x1="37.111" y1="138.158" x2="-34.29" y2="-43.646" xlink:href="#Ac"><stop/><stop offset="1" stop-color="#fff"/></linearGradient><linearGradient id="u" x1="37.111" y1="138.158" x2="-34.29" y2="-43.646" xlink:href="#Ac"><stop stop-color="#97c3f9"/><stop offset="1" stop-color="#93c1f9"/></linearGradient><linearGradient id="v" x1="63.316" y1="127.866" x2="-8.086" y2="-53.937" xlink:href="#Ac"><stop/><stop offset="1" stop-color="#fff"/></linearGradient><linearGradient id="w" x1="63.316" y1="101.749" x2="-8.086" y2="-80.054" xlink:href="#Ac"><stop stop-color="#97c3f9"/><stop offset="1" stop-color="#93c1f9"/></linearGradient><linearGradient id="x" x1="89.52" y1="117.575" x2="18.119" y2="-64.229" xlink:href="#Ac"><stop/><stop offset="1" stop-color="#fff"/></linearGradient><linearGradient id="y" x1="89.52" y1="91.458" x2="18.119" y2="-90.346" xlink:href="#Ac"><stop stop-color="#97c3f9"/><stop offset="1" stop-color="#93c1f9"/></linearGradient><linearGradient id="z" x1="115.724" y1="107.283" x2="44.323" y2="-74.52" xlink:href="#Ac"><stop/><stop offset="1" stop-color="#fff"/></linearGradient><linearGradient id="AA" x1="85.443" y1="81.166" x2="14.042" y2="-100.637" xlink:href="#Ac"><stop stop-color="#97c3f9"/><stop offset="1" stop-color="#93c1f9"/></linearGradient><linearGradient id="AB" x1="141.929" y1="96.992" x2="70.527" y2="-84.812" xlink:href="#Ac"><stop/><stop offset="1" stop-color="#fff"/></linearGradient><linearGradient id="AC" x1="141.929" y1="70.875" x2="70.527" y2="-110.929" xlink:href="#Ac"><stop stop-color="#97c3f9"/><stop offset="1" stop-color="#93c1f9"/></linearGradient><linearGradient id="AD" x1="28.169" y1="141.67" x2="-43.233" y2="-40.134" xlink:href="#Ac"><stop/><stop offset="1" stop-color="#fff"/></linearGradient><linearGradient id="AE" x1="28.169" y1="141.67" x2="-43.233" y2="-40.134" xlink:href="#Ac"><stop stop-color="#97c3f9"/><stop offset="1" stop-color="#93c1f9"/></linearGradient><linearGradient id="AF" x1="54.373" y1="131.378" x2="-17.028" y2="-50.425" xlink:href="#Ac"><stop/><stop offset="1" stop-color="#fff"/></linearGradient><linearGradient id="AG" x1="54.373" y1="131.378" x2="-17.028" y2="-50.425" xlink:href="#Ac"><stop stop-color="#97c3f9"/><stop offset="1" stop-color="#93c1f9"/></linearGradient><linearGradient id="AH" x1="80.578" y1="121.087" x2="9.176" y2="-60.717" xlink:href="#Ac"><stop/><stop offset="1" stop-color="#fff"/></linearGradient><linearGradient id="AI" x1="80.578" y1="121.087" x2="9.176" y2="-60.717" xlink:href="#Ac"><stop stop-color="#97c3f9"/><stop offset="1" stop-color="#93c1f9"/></linearGradient><linearGradient id="AJ" x1="106.782" y1="110.795" x2="35.38" y2="-71.008" xlink:href="#Ac"><stop/><stop offset="1" stop-color="#fff"/></linearGradient><linearGradient id="AK" x1="76.501" y1="110.795" x2="5.099" y2="-71.008" xlink:href="#Ac"><stop stop-color="#97c3f9"/><stop offset="1" stop-color="#93c1f9"/></linearGradient><linearGradient id="AL" x1="132.986" y1="100.504" x2="61.585" y2="-81.3" xlink:href="#Ac"><stop/><stop offset="1" stop-color="#fff"/></linearGradient><linearGradient id="AM" x1="132.986" y1="100.504" x2="61.585" y2="-81.3" xlink:href="#Ac"><stop stop-color="#97c3f9"/><stop offset="1" stop-color="#93c1f9"/></linearGradient><linearGradient id="AN" x1="19.227" y1="145.182" x2="-52.175" y2="-36.622" xlink:href="#Ac"><stop/><stop offset="1" stop-color="#fff"/></linearGradient><linearGradient id="AO" x1="19.227" y1="145.182" x2="-52.175" y2="-36.622" xlink:href="#Ac"><stop stop-color="#97c3f9"/><stop offset="1" stop-color="#93c1f9"/></linearGradient><linearGradient id="AP" x1="45.431" y1="134.89" x2="-25.971" y2="-46.913" xlink:href="#Ac"><stop/><stop offset="1" stop-color="#fff"/></linearGradient><linearGradient id="AQ" x1="45.431" y1="134.89" x2="-25.971" y2="-46.913" xlink:href="#Ac"><stop stop-color="#97c3f9"/><stop offset="1" stop-color="#93c1f9"/></linearGradient><linearGradient id="AR" x1="71.635" y1="124.599" x2=".234" y2="-57.205" xlink:href="#Ac"><stop/><stop offset="1" stop-color="#fff"/></linearGradient><linearGradient id="AS" x1="71.635" y1="124.599" x2=".234" y2="-57.205" xlink:href="#Ac"><stop stop-color="#97c3f9"/><stop offset="1" stop-color="#93c1f9"/></linearGradient><linearGradient id="AT" x1="97.84" y1="114.307" x2="26.438" y2="-67.496" xlink:href="#Ac"><stop/><stop offset="1" stop-color="#fff"/></linearGradient><linearGradient id="AU" x1="97.84" y1="114.307" x2="26.438" y2="-67.496" xlink:href="#Ac"><stop stop-color="#97c3f9"/><stop offset="1" stop-color="#93c1f9"/></linearGradient><linearGradient id="AV" x1="124.044" y1="104.016" x2="52.642" y2="-77.788" xlink:href="#Ac"><stop/><stop offset="1" stop-color="#fff"/></linearGradient><linearGradient id="AW" x1="124.044" y1="77.899" x2="52.642" y2="-103.905" xlink:href="#Ac"><stop stop-color="#97c3f9"/><stop offset="1" stop-color="#93c1f9"/></linearGradient><path id="AX" d="M35.51 36.596c2.887 0 5.228-2.334 5.228-5.212s-2.341-5.212-5.228-5.212-5.228 2.334-5.228 5.212 2.341 5.212 5.228 5.212z"/><path id="AY" d="M65.791 36.596c2.888 0 5.228-2.334 5.228-5.212s-2.341-5.212-5.228-5.212-5.228 2.334-5.228 5.212 2.341 5.212 5.228 5.212z"/><path id="AZ" d="M126.353 36.596c2.887 0 5.228-2.334 5.228-5.212s-2.341-5.212-5.228-5.212-5.229 2.334-5.229 5.212 2.341 5.212 5.229 5.212z"/><path id="Aa" d="M65.791 88.883c2.888 0 5.228-2.334 5.228-5.212s-2.341-5.213-5.228-5.213-5.228 2.334-5.228 5.213 2.341 5.212 5.228 5.212z"/><path id="Ab" d="M126.353 88.883c2.887 0 5.228-2.334 5.228-5.212s-2.341-5.213-5.228-5.213-5.229 2.334-5.229 5.213 2.341 5.212 5.229 5.212z"/><linearGradient id="Ac" gradientUnits="userSpaceOnUse"/></defs></svg>