<svg width="24" height="24" viewBox="0 0 24 24" fill="none" xmlns="http://www.w3.org/2000/svg">
<path d="M21.0418 23.6666H2.9585C1.51183 23.6666 0.333496 22.4883 0.333496 21.0416V2.95831C0.333496 1.51165 1.51183 0.333313 2.9585 0.333313H21.0418C22.4885 0.333313 23.6668 1.51165 23.6668 2.95831V21.0416C23.6668 22.4883 22.4885 23.6666 21.0418 23.6666ZM2.9585 2.08331C2.4755 2.08331 2.0835 2.47648 2.0835 2.95831V21.0416C2.0835 21.5235 2.4755 21.9166 2.9585 21.9166H21.0418C21.5248 21.9166 21.9168 21.5235 21.9168 21.0416V2.95831C21.9168 2.47648 21.5248 2.08331 21.0418 2.08331H2.9585Z" fill="black"/>
</svg>
